<svg width="48" height="48" viewBox="0 0 48 48" fill="none" xmlns="http://www.w3.org/2000/svg">
<g clip-path="url(#clip0_2107_12)">
<path d="M24 48C37.2548 48 48 37.2548 48 24C48 10.7452 37.2548 0 24 0C10.7452 0 0 10.7452 0 24C0 37.2548 10.7452 48 24 48Z" fill="url(#paint0_linear_2107_12)"/>
<path fill-rule="evenodd" clip-rule="evenodd" d="M13.1305 21.0666C19.7158 18.7984 24.1011 17.3127 26.2865 16.6096C32.5261 14.602 33.7985 14.2947 34.5514 14.4412C34.717 14.4734 35.0726 14.6118 35.2513 14.9358C35.4022 15.2094 35.3894 15.5313 35.3681 15.7545C35.3467 15.9777 35.2707 16.4801 35.1592 16.8612C33.8868 21.2108 30.2298 31.6408 28.4807 36.4411C27.7406 38.4723 27.0365 39.0529 26.4894 39.0044C25.3003 38.8989 24.6913 37.4845 23.7984 36.2083C22.401 34.2111 21.632 32.9901 20.2774 31.0433C18.712 28.7934 20.2063 28.0755 21.686 26.6903C22.0733 26.3278 28.5991 20.9509 28.8276 20.3831C28.8562 20.3121 28.9282 20.0397 28.8437 19.869C28.7593 19.6982 28.5765 19.71 28.4439 19.7221C28.2558 19.7394 24.8848 21.7179 18.3309 25.6576C17.3677 26.2479 16.5659 26.4622 15.9253 26.3006C15.2192 26.1225 13.9712 25.279 13.0568 24.5916C11.9352 23.7484 11.0105 23.2296 11.3095 22.2832C11.4652 21.7902 12.0722 21.3847 13.1305 21.0666Z" fill="white"/>
</g>
<defs>
<linearGradient id="paint0_linear_2107_12" x1="24" y1="0" x2="24" y2="47.644" gradientUnits="userSpaceOnUse">
<stop stop-color="#2AABEE"/>
<stop offset="1" stop-color="#229ED9"/>
</linearGradient>
<clipPath id="clip0_2107_12">
<rect width="48" height="48" fill="white"/>
</clipPath>
</defs>
</svg>
