<svg width="1201" height="199" viewBox="0 0 1201 199" fill="none" xmlns="http://www.w3.org/2000/svg">
<path d="M23.6953 3.27734C22.0729 4.04297 20.5872 4.58073 19.2383 4.89062C6.89714 16.612 3.51562 29.974 9.09375 44.9766C11.099 51.7031 15.4193 54.6745 22.0547 53.8906C29.3099 54.2734 34.1771 51.4388 36.6562 45.3867C36.2917 44.4753 35.7539 44.0742 35.043 44.1836C26.2201 47.793 20.4049 46.1706 17.5977 39.3164C15.556 30.457 16.9141 22.7643 21.6719 16.2383C24.4609 13.0299 27.5599 12.4922 30.9688 14.625C30.4583 16.4479 30.7318 17.9336 31.7891 19.082L34.6328 19.4648C43.7474 13.0664 42.125 7.67057 29.7656 3.27734H28.5625H23.6953ZM47.0195 4.39844C46.2721 6.11198 45.5247 7.47005 44.7773 8.47266L44.4219 9.21094C43.5651 10.1771 42.9453 11.1615 42.5625 12.1641C43.7292 14.4062 44.2214 16.6302 44.0391 18.8359C43.6927 22.0443 42.7083 24.6328 41.0859 26.6016C40.9401 29.2812 41.3138 31.5052 42.207 33.2734L41.0859 39.5625L40.7031 42.1602C40.138 45.8607 40.0195 48.9505 40.3477 51.4297C42.7357 52.2682 45.0781 52.5143 47.375 52.168H48.4961C53.1263 53.7904 57.4466 54.4102 61.457 54.0273C62.3867 52.4596 62.8789 50.974 62.9336 49.5703C60.8555 48.0938 59.3789 46.362 58.5039 44.375L55.5234 44.0195C53.2083 43.2904 51.2396 42.7982 49.6172 42.543V41.4219L49.9727 40.6836V39.5625L50.7109 36.6094L51.4492 34.0117H52.5703L53.3086 33.6562H56.2617C58.6133 33.3099 60.5911 33.3099 62.1953 33.6562C71.401 30.3203 71.7747 27.1029 63.3164 24.0039L61.457 24.7695H60.3359L56.2617 24.0039L52.5703 23.2656V22.1719L52.9258 21.4336L53.3086 14.7617L54.4297 14.3789L55.9062 14.0234H58.8594C62.2318 13.1849 65.0755 12.6927 67.3906 12.5469C70.0885 8.5 68.4844 5.41016 62.5781 3.27734L60.3359 4.01562H57.3828H56.2617L55.168 4.39844L54.4297 4.01562L51.832 3.66016H50.7109C49.5443 3.40495 48.5599 3.27734 47.7578 3.27734L47.0195 4.39844ZM81.1172 4.91797C80.7344 6.23047 80.3516 7.24219 79.9688 7.95312L80.3516 10.6328L79.9688 11.3711C79.5312 14.0872 78.9023 16.3659 78.082 18.207L77.6992 20.8594L76.168 24.6602C75.4935 29.7096 73.9805 33.8841 71.6289 37.1836C71.082 39.1888 70.3164 40.957 69.332 42.4883C69.1862 45.3867 69.8242 47.9115 71.2461 50.0625C71.4102 51.5391 71.6654 52.806 72.0117 53.8633L76.5508 51.2109C78.4466 51.1198 80.0872 51.2474 81.4727 51.5938H82.6211L84.5078 51.9766H85.6562C87.6615 52.487 89.4297 52.7331 90.9609 52.7148L95.9102 53.4805H97.4141L98.1797 53.8633C101.643 53.0794 104.678 52.8242 107.285 53.0977L109.555 49.6797C107.24 46.6354 104.332 44.4935 100.832 43.2539L97.7969 43.9922L96.6484 43.6094H95.1445L93.2305 43.2539H92.1094L90.9609 42.8711C89.6302 42.8346 88.6185 42.707 87.9258 42.4883C85.5195 42.3424 83.4961 42.0872 81.8555 41.7227L82.6211 39.0703V37.9219L83.3867 35.2695L83.7695 34.5312L84.5078 31.8516L84.8906 30.3477L86.8047 23.5117L87.1602 21.625L87.543 20.4766L87.9258 19.7383L89.8398 13.2852V12.1367L91.3438 6.06641C88.5365 4.66276 86.0117 3.77865 83.7695 3.41406L81.1172 4.91797ZM117.949 4.39844C117.202 6.11198 116.454 7.47005 115.707 8.47266L115.352 9.21094C114.495 10.1771 113.875 11.1615 113.492 12.1641C114.659 14.4062 115.151 16.6302 114.969 18.8359C114.622 22.0443 113.638 24.6328 112.016 26.6016C111.87 29.2812 112.243 31.5052 113.137 33.2734L112.016 39.5625L111.633 42.1602C111.068 45.8607 110.949 48.9505 111.277 51.4297C113.665 52.2682 116.008 52.5143 118.305 52.168H119.426C124.056 53.7904 128.376 54.4102 132.387 54.0273C133.316 52.4596 133.809 50.974 133.863 49.5703C131.785 48.0938 130.309 46.362 129.434 44.375L126.453 44.0195C124.138 43.2904 122.169 42.7982 120.547 42.543V41.4219L120.902 40.6836V39.5625L121.641 36.6094L122.379 34.0117H123.5L124.238 33.6562H127.191C129.543 33.3099 131.521 33.3099 133.125 33.6562C142.331 30.3203 142.704 27.1029 134.246 24.0039L132.387 24.7695H131.266L127.191 24.0039L123.5 23.2656V22.1719L123.855 21.4336L124.238 14.7617L125.359 14.3789L126.836 14.0234H129.789C133.161 13.1849 136.005 12.6927 138.32 12.5469C141.018 8.5 139.414 5.41016 133.508 3.27734L131.266 4.01562H128.312H127.191L126.098 4.39844L125.359 4.01562L122.762 3.66016H121.641C120.474 3.40495 119.49 3.27734 118.688 3.27734L117.949 4.39844ZM153.441 3.27734C150.033 4.31641 147.307 5.85677 145.266 7.89844V10.0586L144.883 12.5469C144.883 18.2891 143.935 23.2747 142.039 27.5039C141.383 29.4362 141.62 31.2227 142.75 32.8633V34.2852L142.039 35.707C142.003 37.0742 141.766 38.2682 141.328 39.2891V42.1328L140.973 43.1992V45.6875L140.262 48.5312C139.897 49.3516 139.66 50.1901 139.551 51.0469C144.363 53.9271 149.23 54.638 154.152 53.1797C161.754 53.9453 166.867 51.2109 169.492 44.9766C175.562 37.0651 174.961 30.1745 167.688 24.3047C175.143 18.1797 175.863 13.3125 169.848 9.70312L170.203 8.63672C164.516 5.10026 158.928 3.3138 153.441 3.27734ZM153.797 14.3242C162.328 14.0508 164.47 17.1406 160.223 23.5938C157.324 24.5052 154.827 24.9792 152.73 25.0156V23.9492L153.086 22.8828V21.8164V20.75L153.441 18.2344C153.46 16.7031 153.578 15.3997 153.797 14.3242ZM162.355 32.1523C163.632 35.2878 163.276 38.1406 161.289 40.7109C159.01 44.8307 155.565 45.7786 150.953 43.5547C149.622 42.1328 149.859 39.043 151.664 34.2852L152.73 33.9297L153.797 33.5742C156.987 33.556 159.84 33.082 162.355 32.1523ZM185.816 3.44141C178.087 4.68099 175.426 12.6471 177.832 27.3398C177.249 30.0924 176.365 32.362 175.18 34.1484C175.344 36.0443 175.79 37.5664 176.52 38.7148L176.848 39.8359V45.168C177.121 48.5221 177.23 51.3021 177.176 53.5078C177.559 53.763 177.777 54.0182 177.832 54.2734C179.181 54.875 180.512 54.9935 181.824 54.6289C182.225 53.7357 182.672 52.9792 183.164 52.3594L183.492 51.5938C183.984 48.6042 184.759 46.207 185.816 44.4023L187.484 47.8203L188.797 48.5586L190.137 50.0898L191.777 50.8555L193.773 51.9766L195.113 53.125C196.863 53.7995 198.303 54.556 199.434 55.3945L200.746 56.1602L202.086 56.543L204.738 58.4297L205.75 58.8125L206.406 59.5781L207.391 59.9609L208.402 60.3164L213.707 63.7344L218.027 64.5L219.695 61.8477V59.1953C219.312 58.9401 219.094 58.6849 219.039 58.4297C218.638 58.1745 218.41 57.9193 218.355 57.6641L217.699 57.2812L216.715 56.543C215.676 55.6862 214.901 54.8021 214.391 53.8906C213.078 53.1432 212.076 52.2591 211.383 51.2383L210.727 50.8555L210.07 50.4727L208.074 48.9414L206.078 48.2031L205.422 47.4375L204.738 47.0547C202.405 45.9974 200.527 44.6029 199.105 42.8711L198.422 42.5156L197.766 42.1328L195.77 40.6016C193.564 38.9609 191.905 37.0651 190.793 34.9141L189.125 33.4102C202.688 27.0482 207.673 19.2096 204.082 9.89453C198.012 5.48307 191.923 3.33203 185.816 3.44141ZM187.129 13.0664C193.345 14.6706 193.017 16.9948 186.145 20.0391V19.0547L187.129 13.0664ZM221.254 7.70703L218.41 12.6562L215.074 22.6094L211.93 24.5234L210.59 27.8867L210.945 31.3594C209.469 34.3307 208.193 37.2747 207.117 40.1914L206.406 50.0898C207.938 51.9857 209.587 53.1615 211.355 53.6172L214.883 50.0898L218.027 39.0156L226.203 37.375C224.964 44.9219 224.809 48.4766 225.738 48.0391L228.309 54.3281C237.824 39.7266 239 24.888 231.836 9.8125L232.547 6.99609C230.414 5.86589 228.764 4.6901 227.598 3.46875L221.254 7.70703ZM221.527 29.1719L224.508 22.0625L226.23 28.7891L221.527 29.1719ZM249.719 3.44141C243.703 4.95443 239.729 8.30859 237.797 13.5039C239.109 17.6237 241.962 19.4831 246.355 19.082C246.027 20.9596 245.909 22.582 246 23.9492V35.1055C246.073 38.0039 245.945 40.4922 245.617 42.5703C245.982 44.375 245.982 45.9883 245.617 47.4102C245.927 48.7956 246.055 50.1536 246 51.4844L246.738 51.1289C250.111 55.668 253.091 54.5469 255.68 47.7656V44.7852L255.297 42.1875L255.68 41.0664V38.4688L256.035 36.2266C256.746 32.8359 256.992 29.9831 256.773 27.668V26.5469C257.94 23.0833 258.441 19.8568 258.277 16.8672C262.78 15.7917 265.013 12.9297 264.977 8.28125C260.237 4.4349 255.151 2.82161 249.719 3.44141ZM272.988 4.39844C272.241 6.11198 271.493 7.47005 270.746 8.47266L270.391 9.21094C269.534 10.1771 268.914 11.1615 268.531 12.1641C269.698 14.4062 270.19 16.6302 270.008 18.8359C269.661 22.0443 268.677 24.6328 267.055 26.6016C266.909 29.2812 267.283 31.5052 268.176 33.2734L267.055 39.5625L266.672 42.1602C266.107 45.8607 265.988 48.9505 266.316 51.4297C268.704 52.2682 271.047 52.5143 273.344 52.168H274.465C279.095 53.7904 283.415 54.4102 287.426 54.0273C288.355 52.4596 288.848 50.974 288.902 49.5703C286.824 48.0938 285.348 46.362 284.473 44.375L281.492 44.0195C279.177 43.2904 277.208 42.7982 275.586 42.543V41.4219L275.941 40.6836V39.5625L276.68 36.6094L277.418 34.0117H278.539L279.277 33.6562H282.23C284.582 33.3099 286.56 33.3099 288.164 33.6562C297.37 30.3203 297.743 27.1029 289.285 24.0039L287.426 24.7695H286.305L282.23 24.0039L278.539 23.2656V22.1719L278.895 21.4336L279.277 14.7617L280.398 14.3789L281.875 14.0234H284.828C288.201 13.1849 291.044 12.6927 293.359 12.5469C296.057 8.5 294.453 5.41016 288.547 3.27734L286.305 4.01562H283.352H282.23L281.137 4.39844L280.398 4.01562L277.801 3.66016H276.68C275.513 3.40495 274.529 3.27734 273.727 3.27734L272.988 4.39844ZM328.414 3.44141C322.398 4.95443 318.424 8.30859 316.492 13.5039C317.805 17.6237 320.658 19.4831 325.051 19.082C324.723 20.9596 324.604 22.582 324.695 23.9492V35.1055C324.768 38.0039 324.641 40.4922 324.312 42.5703C324.677 44.375 324.677 45.9883 324.312 47.4102C324.622 48.7956 324.75 50.1536 324.695 51.4844L325.434 51.1289C328.806 55.668 331.786 54.5469 334.375 47.7656V44.7852L333.992 42.1875L334.375 41.0664V38.4688L334.73 36.2266C335.441 32.8359 335.688 29.9831 335.469 27.668V26.5469C336.635 23.0833 337.137 19.8568 336.973 16.8672C341.475 15.7917 343.708 12.9297 343.672 8.28125C338.932 4.4349 333.846 2.82161 328.414 3.44141ZM353.816 3.41406C352.686 4.83594 351.52 5.89323 350.316 6.58594C350.225 8.39062 349.988 9.91276 349.605 11.1523V12.1914L348.895 15.0078C348.876 16.2474 348.758 17.1862 348.539 17.8242C348.375 19.5195 348.147 20.9232 347.855 22.0352V23.0742C347.509 24.0404 347.391 24.9792 347.5 25.8906C347.062 27.2578 346.826 28.5521 346.789 29.7734L346.434 32.207C345.941 35.5612 345.358 38.2591 344.684 40.3008L345.039 46.9727C345.294 47.319 345.413 47.6745 345.395 48.0391L345.75 49.7891L346.434 52.9336C347.6 52.4779 348.539 52.013 349.25 51.5391L349.605 50.5L353.105 43.1172V42.0508L353.461 41.3672L353.816 39.9453L354.883 33.2734L355.566 33.6289L356.633 33.9844L357.316 34.3398C361.09 35.4883 364.143 36.1901 366.477 36.4453V37.4844C367.297 39.6536 367.762 41.5312 367.871 43.1172C367.671 47.2917 368.254 50.9193 369.621 54L372.438 50.5C372.784 49.2969 373.13 48.3581 373.477 47.6836L374.188 46.6172L374.543 45.5781L374.898 44.1562L375.254 43.1172L375.938 42.0508L376.293 41.0117C376.475 39.3346 376.831 37.9219 377.359 36.7734L378.754 32.918V31.8789V29.0625C378.335 28.2604 378.098 27.4401 378.043 26.6016L378.398 25.207V24.1406C378.635 23.0286 378.754 22.0898 378.754 21.3242V20.2852V19.2188C378.991 18.1068 379.109 17.168 379.109 16.4023V15.3633V13.9414V12.9023V5.875C374.516 2.22917 371.234 3.28646 369.266 9.04688L370.332 10.4414L370.688 11.1523V13.2578L370.332 14.2969C370.66 19.4922 370.186 24.0586 368.91 27.9961L366.477 27.6406L364.016 27.3125L363.305 26.957H362.238L359.777 25.8906L356.277 24.4961V23.0742C356.678 21.7799 356.915 20.6133 356.988 19.5742C357.207 18.4622 357.316 17.5234 357.316 16.7578L357.672 16.0469V15.0078L358.027 12.5469C358.757 9.84896 358.993 7.38802 358.738 5.16406C357.389 3.83333 355.986 3.25 354.527 3.41406H353.816ZM387.504 4.39844C386.757 6.11198 386.009 7.47005 385.262 8.47266L384.906 9.21094C384.049 10.1771 383.43 11.1615 383.047 12.1641C384.214 14.4062 384.706 16.6302 384.523 18.8359C384.177 22.0443 383.193 24.6328 381.57 26.6016C381.424 29.2812 381.798 31.5052 382.691 33.2734L381.57 39.5625L381.188 42.1602C380.622 45.8607 380.504 48.9505 380.832 51.4297C383.22 52.2682 385.562 52.5143 387.859 52.168H388.98C393.611 53.7904 397.931 54.4102 401.941 54.0273C402.871 52.4596 403.363 50.974 403.418 49.5703C401.34 48.0938 399.863 46.362 398.988 44.375L396.008 44.0195C393.693 43.2904 391.724 42.7982 390.102 42.543V41.4219L390.457 40.6836V39.5625L391.195 36.6094L391.934 34.0117H393.055L393.793 33.6562H396.746C399.098 33.3099 401.076 33.3099 402.68 33.6562C411.885 30.3203 412.259 27.1029 403.801 24.0039L401.941 24.7695H400.82L396.746 24.0039L393.055 23.2656V22.1719L393.41 21.4336L393.793 14.7617L394.914 14.3789L396.391 14.0234H399.344C402.716 13.1849 405.56 12.6927 407.875 12.5469C410.573 8.5 408.969 5.41016 403.062 3.27734L400.82 4.01562H397.867H396.746L395.652 4.39844L394.914 4.01562L392.316 3.66016H391.195C390.029 3.40495 389.044 3.27734 388.242 3.27734L387.504 4.39844ZM442.93 4.91797C442.547 6.23047 442.164 7.24219 441.781 7.95312L442.164 10.6328L441.781 11.3711C441.344 14.0872 440.715 16.3659 439.895 18.207L439.512 20.8594L437.98 24.6602C437.306 29.7096 435.793 33.8841 433.441 37.1836C432.895 39.1888 432.129 40.957 431.145 42.4883C430.999 45.3867 431.637 47.9115 433.059 50.0625C433.223 51.5391 433.478 52.806 433.824 53.8633L438.363 51.2109C440.259 51.1198 441.9 51.2474 443.285 51.5938H444.434L446.32 51.9766H447.469C449.474 52.487 451.242 52.7331 452.773 52.7148L457.723 53.4805H459.227L459.992 53.8633C463.456 53.0794 466.491 52.8242 469.098 53.0977L471.367 49.6797C469.052 46.6354 466.145 44.4935 462.645 43.2539L459.609 43.9922L458.461 43.6094H456.957L455.043 43.2539H453.922L452.773 42.8711C451.443 42.8346 450.431 42.707 449.738 42.4883C447.332 42.3424 445.309 42.0872 443.668 41.7227L444.434 39.0703V37.9219L445.199 35.2695L445.582 34.5312L446.32 31.8516L446.703 30.3477L448.617 23.5117L448.973 21.625L449.355 20.4766L449.738 19.7383L451.652 13.2852V12.1367L453.156 6.06641C450.349 4.66276 447.824 3.77865 445.582 3.41406L442.93 4.91797ZM479.762 4.39844C479.014 6.11198 478.267 7.47005 477.52 8.47266L477.164 9.21094C476.307 10.1771 475.688 11.1615 475.305 12.1641C476.471 14.4062 476.964 16.6302 476.781 18.8359C476.435 22.0443 475.451 24.6328 473.828 26.6016C473.682 29.2812 474.056 31.5052 474.949 33.2734L473.828 39.5625L473.445 42.1602C472.88 45.8607 472.762 48.9505 473.09 51.4297C475.478 52.2682 477.82 52.5143 480.117 52.168H481.238C485.868 53.7904 490.189 54.4102 494.199 54.0273C495.129 52.4596 495.621 50.974 495.676 49.5703C493.598 48.0938 492.121 46.362 491.246 44.375L488.266 44.0195C485.951 43.2904 483.982 42.7982 482.359 42.543V41.4219L482.715 40.6836V39.5625L483.453 36.6094L484.191 34.0117H485.312L486.051 33.6562H489.004C491.355 33.3099 493.333 33.3099 494.938 33.6562C504.143 30.3203 504.517 27.1029 496.059 24.0039L494.199 24.7695H493.078L489.004 24.0039L485.312 23.2656V22.1719L485.668 21.4336L486.051 14.7617L487.172 14.3789L488.648 14.0234H491.602C494.974 13.1849 497.818 12.6927 500.133 12.5469C502.831 8.5 501.227 5.41016 495.32 3.27734L493.078 4.01562H490.125H489.004L487.91 4.39844L487.172 4.01562L484.574 3.66016H483.453C482.286 3.40495 481.302 3.27734 480.5 3.27734L479.762 4.39844ZM521.215 3.41406C501.655 13.7682 496.997 28.3698 507.242 47.2188L512.164 51.375C517.451 54.8021 522.363 54.6745 526.902 50.9922C532.335 48.7865 535.352 44.7578 535.953 38.9062C534.458 29.2448 527.285 25.4714 514.434 27.5859L513.668 29.0898C513.23 30.5117 513.103 31.7695 513.285 32.8633C513.668 32.8997 514.051 32.7812 514.434 32.5078C515.418 32.9635 516.174 33.5924 516.703 34.3945C517.141 34.6315 517.387 34.8776 517.441 35.1328L518.59 35.5156L521.598 37.4023C522.582 38.2956 523.466 38.9245 524.25 39.2891C521.279 41.6589 518.134 42.4154 514.816 41.5586L513.285 38.9062C509.512 28.7161 511.909 20.4128 520.477 13.9961C523.521 15.2721 526.292 15.901 528.789 15.8828C530.885 14.625 532.517 13.2396 533.684 11.7266C532.517 5.85677 528.361 3.08594 521.215 3.41406ZM551.238 7.70703L548.395 12.6562L545.059 22.6094L541.914 24.5234L540.574 27.8867L540.93 31.3594C539.453 34.3307 538.177 37.2747 537.102 40.1914L536.391 50.0898C537.922 51.9857 539.572 53.1615 541.34 53.6172L544.867 50.0898L548.012 39.0156L556.188 37.375C554.948 44.9219 554.793 48.4766 555.723 48.0391L558.293 54.3281C567.809 39.7266 568.984 24.888 561.82 9.8125L562.531 6.99609C560.398 5.86589 558.749 4.6901 557.582 3.46875L551.238 7.70703ZM551.512 29.1719L554.492 22.0625L556.215 28.7891L551.512 29.1719ZM585.664 3.27734C584.042 4.04297 582.556 4.58073 581.207 4.89062C568.866 16.612 565.484 29.974 571.062 44.9766C573.068 51.7031 577.388 54.6745 584.023 53.8906C591.279 54.2734 596.146 51.4388 598.625 45.3867C598.26 44.4753 597.723 44.0742 597.012 44.1836C588.189 47.793 582.374 46.1706 579.566 39.3164C577.525 30.457 578.883 22.7643 583.641 16.2383C586.43 13.0299 589.529 12.4922 592.938 14.625C592.427 16.4479 592.701 17.9336 593.758 19.082L596.602 19.4648C605.716 13.0664 604.094 7.67057 591.734 3.27734H590.531H585.664ZM608.879 4.17969C605.671 5.76562 603.31 7.77083 601.797 10.1953L602.152 11.9727H603.219C603.602 12.2096 603.839 12.4466 603.93 12.6836L604.969 13.3672L605.68 14.0781L606.746 14.7891L607.457 15.5L608.168 16.5664C610.064 17.6966 611.477 18.8724 612.406 20.0938C612.26 21.5885 612.379 22.8919 612.762 24.0039C613.91 25.681 614.74 27.2122 615.25 28.5977L614.895 29.6641C614.621 31.4505 614.266 32.8633 613.828 33.9023C613.536 37.1471 612.826 39.8633 611.695 42.0508L612.051 46.2891C611.796 48.987 612.507 51.1107 614.184 52.6602C614.329 54.4466 614.803 54.6836 615.605 53.3711L616.316 52.6602L616.672 51.9492L617.711 49.4883L618.422 49.1328C619.242 47.3099 620.072 45.888 620.91 44.8672L621.621 41.3398L624.109 33.5469V29.6641C624.711 27.7682 625.057 26.1185 625.148 24.7148C625.659 22.8372 625.896 21.1784 625.859 19.7383C630.49 15.819 633.087 11.3438 633.652 6.3125C628.457 4.76302 623.617 7.23307 619.133 13.7227C615.031 11.0065 612.206 7.70703 610.656 3.82422L609.234 3.46875L608.879 4.17969ZM677.293 3.46875C677.038 3.92448 676.773 4.1888 676.5 4.26172H675.324H674.121C671.022 6.08464 668.917 6.27604 667.805 4.83594L666.301 5.38281L664.223 10.6055L663.43 11.3984L659.465 16.5391L659.055 17.7422L657.879 20.9141L657.469 22.0898L654.707 29.2266L656.293 33.9844C654.361 43.0807 657.268 49.5612 665.016 53.4258C666.565 53.8268 668.014 53.9544 669.363 53.8086C682.342 48.1758 690.272 38.7969 693.152 25.6719C692.423 14.2057 687.137 6.80469 677.293 3.46875ZM674.914 17.332C678.578 18.0794 680.829 21.1237 681.668 26.4648C679.426 33.5013 675.725 38.9154 670.566 42.707C668.98 39.3893 668.452 36.0898 668.98 32.8086C668.47 30.3294 668.333 28.2148 668.57 26.4648L669.773 24.8789L671.742 21.707C673.219 20.2305 674.276 18.7721 674.914 17.332ZM702.395 3.27734C699.824 7.74349 698.913 12.319 699.66 17.0039C699.332 17.9518 699.214 18.8724 699.305 19.7656C698.94 21.1328 698.712 22.3906 698.621 23.5391C696.689 24.8151 695.431 26.4193 694.848 28.3516V31.7969C696.434 33.1641 697.117 34.6497 696.898 36.2539C696.88 37.3841 696.771 38.2956 696.57 38.9883V41.75C696.68 45.2865 696.333 48.2578 695.531 50.6641C696.461 51.4844 697.035 52.2865 697.254 53.0703C700.645 55.1484 703.279 54.0091 705.156 49.6523C704.117 43.8919 704.691 38.7331 706.879 34.1758H707.891L710.652 34.8867H712.02L713.059 35.2148L714.07 35.5703L719.922 36.2539C721.781 36.8737 723.495 37.2201 725.062 37.293C726.247 35.5612 726.594 33.8385 726.102 32.125C725.336 30.5026 724.534 29.2448 723.695 28.3516C707.344 26.638 703.333 22.5182 711.664 15.9922H714.07L716.148 16.3203C717.971 16.9036 719.566 17.25 720.934 17.3594L725.418 18.3984C726.02 17.2865 726.703 16.4844 727.469 15.9922C727.286 13.4401 726.712 11.2617 725.746 9.45703L722.328 8.41797C718.281 7.1237 714.845 6.4401 712.02 6.36719C708.921 4.30729 705.712 3.27734 702.395 3.27734ZM770.754 1.96484C770.426 3.22266 770.098 3.83333 769.77 3.79688L768.785 4.78125C768.056 6.3125 767.072 7.40625 765.832 8.0625L764.848 9.70312L764.52 10.6875C764.975 11.4896 765.085 12.5833 764.848 13.9688L764.191 17.5781L763.863 18.5625L763.535 20.2031L763.207 21.1875V22.1719L762.551 24.7969C761.84 26.8385 761.402 28.5885 761.238 30.0469L760.582 29.0625C760.272 27.9688 759.944 27.0938 759.598 26.4375L756.645 18.2344C757.647 15.8281 757.975 13.5312 757.629 11.3438C755.095 9.63021 752.579 9.19271 750.082 10.0312C748.35 11.2344 747.038 12.4375 746.145 13.6406L745.488 15.2812C744.996 17.0859 744.777 19.1641 744.832 21.5156C744.285 22.7188 743.738 23.7031 743.191 24.4688V25.7812L742.863 28.0781L742.535 30.375L742.207 32.3438L741.879 33.3281L741.551 35.625V37.9219L741.223 38.9062C741.186 40.1641 741.077 41.2578 740.895 42.1875V43.1719C740.348 45.3411 740.02 47.2005 739.91 48.75C741.533 50.3359 742.517 52.0859 742.863 54C744.34 52.1771 745.98 50.8646 747.785 50.0625C748.204 44.4844 749.626 39.6719 752.051 35.625L752.707 36.6094L753.363 37.5938L753.691 38.25L755.004 40.5469C756.007 44.0833 757.538 47.0365 759.598 49.4062C761.384 49.7526 763.025 49.7526 764.52 49.4062C771.665 40.5104 774.4 30.8854 772.723 20.5312C773.652 13.9141 773.105 8.22656 771.082 3.46875H770.754H771.082L770.754 1.96484ZM786.996 7.70703L784.152 12.6562L780.816 22.6094L777.672 24.5234L776.332 27.8867L776.688 31.3594C775.211 34.3307 773.935 37.2747 772.859 40.1914L772.148 50.0898C773.68 51.9857 775.329 53.1615 777.098 53.6172L780.625 50.0898L783.77 39.0156L791.945 37.375C790.706 44.9219 790.551 48.4766 791.48 48.0391L794.051 54.3281C803.566 39.7266 804.742 24.888 797.578 9.8125L798.289 6.99609C796.156 5.86589 794.507 4.6901 793.34 3.46875L786.996 7.70703ZM787.27 29.1719L790.25 22.0625L791.973 28.7891L787.27 29.1719ZM814.395 3.44141C806.665 4.68099 804.004 12.6471 806.41 27.3398C805.827 30.0924 804.943 32.362 803.758 34.1484C803.922 36.0443 804.368 37.5664 805.098 38.7148L805.426 39.8359V45.168C805.699 48.5221 805.809 51.3021 805.754 53.5078C806.137 53.763 806.355 54.0182 806.41 54.2734C807.759 54.875 809.09 54.9935 810.402 54.6289C810.803 53.7357 811.25 52.9792 811.742 52.3594L812.07 51.5938C812.562 48.6042 813.337 46.207 814.395 44.4023L816.062 47.8203L817.375 48.5586L818.715 50.0898L820.355 50.8555L822.352 51.9766L823.691 53.125C825.441 53.7995 826.882 54.556 828.012 55.3945L829.324 56.1602L830.664 56.543L833.316 58.4297L834.328 58.8125L834.984 59.5781L835.969 59.9609L836.98 60.3164L842.285 63.7344L846.605 64.5L848.273 61.8477V59.1953C847.891 58.9401 847.672 58.6849 847.617 58.4297C847.216 58.1745 846.988 57.9193 846.934 57.6641L846.277 57.2812L845.293 56.543C844.254 55.6862 843.479 54.8021 842.969 53.8906C841.656 53.1432 840.654 52.2591 839.961 51.2383L839.305 50.8555L838.648 50.4727L836.652 48.9414L834.656 48.2031L834 47.4375L833.316 47.0547C830.983 45.9974 829.105 44.6029 827.684 42.8711L827 42.5156L826.344 42.1328L824.348 40.6016C822.142 38.9609 820.483 37.0651 819.371 34.9141L817.703 33.4102C831.266 27.0482 836.251 19.2096 832.66 9.89453C826.59 5.48307 820.501 3.33203 814.395 3.44141ZM815.707 13.0664C821.923 14.6706 821.595 16.9948 814.723 20.0391V19.0547L815.707 13.0664ZM862.273 5.76562L861.453 8.0625L860.633 9.94922L860.223 11.8633L859.402 13.7773L858.582 15.6914L858.172 17.6055L857.762 20.2852C857.033 21.707 856.486 23.1016 856.121 24.4688C855.72 27.4219 854.763 29.8464 853.25 31.7422C853.323 33.5286 853.049 35.0508 852.43 36.3086C850.935 37.4753 849.577 37.2201 848.355 35.543L847.125 33.6289V32.5078V30.9766C847.508 28.8438 847.645 27.0573 847.535 25.6172V21.7891L847.945 14.1602V13.0117C846.724 10.7878 846.04 8.6276 845.895 6.53125C844.728 5.38281 843.497 4.61719 842.203 4.23438L838.895 8.0625C835.868 17.724 834.975 24.5781 836.215 28.625L836.051 35.9258C835.814 38.2591 835.814 40.1732 836.051 41.668C838.84 51.1289 844.71 53.7995 853.66 49.6797L857.543 54.875C860.806 53.8542 863.604 51.8672 865.938 48.9141L866.348 47.3828V46.2344C865.564 43.4089 865.29 40.8659 865.527 38.6055V36.3086C866.165 34.7591 866.576 33.3646 866.758 32.125L867.168 30.2109C867.733 28.6979 868.007 27.2943 867.988 26L868.398 24.8516L869.219 21.0234C871.242 16.0833 872.199 11.6354 872.09 7.67969C870.632 4.92708 868.444 3.77865 865.527 4.23438L865.117 3.08594L862.273 5.76562ZM885.844 3.44141C879.828 4.95443 875.854 8.30859 873.922 13.5039C875.234 17.6237 878.087 19.4831 882.48 19.082C882.152 20.9596 882.034 22.582 882.125 23.9492V35.1055C882.198 38.0039 882.07 40.4922 881.742 42.5703C882.107 44.375 882.107 45.9883 881.742 47.4102C882.052 48.7956 882.18 50.1536 882.125 51.4844L882.863 51.1289C886.236 55.668 889.216 54.5469 891.805 47.7656V44.7852L891.422 42.1875L891.805 41.0664V38.4688L892.16 36.2266C892.871 32.8359 893.117 29.9831 892.898 27.668V26.5469C894.065 23.0833 894.566 19.8568 894.402 16.8672C898.905 15.7917 901.138 12.9297 901.102 8.28125C896.362 4.4349 891.276 2.82161 885.844 3.44141ZM923.605 3.46875C923.35 3.92448 923.086 4.1888 922.812 4.26172H921.637H920.434C917.335 6.08464 915.229 6.27604 914.117 4.83594L912.613 5.38281L910.535 10.6055L909.742 11.3984L905.777 16.5391L905.367 17.7422L904.191 20.9141L903.781 22.0898L901.02 29.2266L902.605 33.9844C900.673 43.0807 903.581 49.5612 911.328 53.4258C912.878 53.8268 914.327 53.9544 915.676 53.8086C928.655 48.1758 936.585 38.7969 939.465 25.6719C938.736 14.2057 933.449 6.80469 923.605 3.46875ZM921.227 17.332C924.891 18.0794 927.142 21.1237 927.98 26.4648C925.738 33.5013 922.038 38.9154 916.879 42.707C915.293 39.3893 914.764 36.0898 915.293 32.8086C914.783 30.3294 914.646 28.2148 914.883 26.4648L916.086 24.8789L918.055 21.707C919.531 20.2305 920.589 18.7721 921.227 17.332ZM980.125 3.27734C978.503 4.04297 977.017 4.58073 975.668 4.89062C963.327 16.612 959.945 29.974 965.523 44.9766C967.529 51.7031 971.849 54.6745 978.484 53.8906C985.74 54.2734 990.607 51.4388 993.086 45.3867C992.721 44.4753 992.184 44.0742 991.473 44.1836C982.65 47.793 976.835 46.1706 974.027 39.3164C971.986 30.457 973.344 22.7643 978.102 16.2383C980.891 13.0299 983.99 12.4922 987.398 14.625C986.888 16.4479 987.161 17.9336 988.219 19.082L991.062 19.4648C1000.18 13.0664 998.555 7.67057 986.195 3.27734H984.992H980.125ZM1007.22 3.44141C999.493 4.68099 996.832 12.6471 999.238 27.3398C998.655 30.0924 997.771 32.362 996.586 34.1484C996.75 36.0443 997.197 37.5664 997.926 38.7148L998.254 39.8359V45.168C998.527 48.5221 998.637 51.3021 998.582 53.5078C998.965 53.763 999.184 54.0182 999.238 54.2734C1000.59 54.875 1001.92 54.9935 1003.23 54.6289C1003.63 53.7357 1004.08 52.9792 1004.57 52.3594L1004.9 51.5938C1005.39 48.6042 1006.17 46.207 1007.22 44.4023L1008.89 47.8203L1010.2 48.5586L1011.54 50.0898L1013.18 50.8555L1015.18 51.9766L1016.52 53.125C1018.27 53.7995 1019.71 54.556 1020.84 55.3945L1022.15 56.1602L1023.49 56.543L1026.14 58.4297L1027.16 58.8125L1027.81 59.5781L1028.8 59.9609L1029.81 60.3164L1035.11 63.7344L1039.43 64.5L1041.1 61.8477V59.1953C1040.72 58.9401 1040.5 58.6849 1040.45 58.4297C1040.04 58.1745 1039.82 57.9193 1039.76 57.6641L1039.11 57.2812L1038.12 56.543C1037.08 55.6862 1036.31 54.8021 1035.8 53.8906C1034.48 53.1432 1033.48 52.2591 1032.79 51.2383L1032.13 50.8555L1031.48 50.4727L1029.48 48.9414L1027.48 48.2031L1026.83 47.4375L1026.14 47.0547C1023.81 45.9974 1021.93 44.6029 1020.51 42.8711L1019.83 42.5156L1019.17 42.1328L1017.18 40.6016C1014.97 38.9609 1013.31 37.0651 1012.2 34.9141L1010.53 33.4102C1024.09 27.0482 1029.08 19.2096 1025.49 9.89453C1019.42 5.48307 1013.33 3.33203 1007.22 3.44141ZM1008.54 13.0664C1014.75 14.6706 1014.42 16.9948 1007.55 20.0391V19.0547L1008.54 13.0664ZM1035.71 4.39844C1034.97 6.11198 1034.22 7.47005 1033.47 8.47266L1033.12 9.21094C1032.26 10.1771 1031.64 11.1615 1031.26 12.1641C1032.42 14.4062 1032.92 16.6302 1032.73 18.8359C1032.39 22.0443 1031.4 24.6328 1029.78 26.6016C1029.64 29.2812 1030.01 31.5052 1030.9 33.2734L1029.78 39.5625L1029.4 42.1602C1028.83 45.8607 1028.71 48.9505 1029.04 51.4297C1031.43 52.2682 1033.77 52.5143 1036.07 52.168H1037.19C1041.82 53.7904 1046.14 54.4102 1050.15 54.0273C1051.08 52.4596 1051.57 50.974 1051.63 49.5703C1049.55 48.0938 1048.07 46.362 1047.2 44.375L1044.22 44.0195C1041.9 43.2904 1039.93 42.7982 1038.31 42.543V41.4219L1038.67 40.6836V39.5625L1039.41 36.6094L1040.14 34.0117H1041.27L1042 33.6562H1044.96C1047.31 33.3099 1049.29 33.3099 1050.89 33.6562C1060.1 30.3203 1060.47 27.1029 1052.01 24.0039L1050.15 24.7695H1049.03L1044.96 24.0039L1041.27 23.2656V22.1719L1041.62 21.4336L1042 14.7617L1043.12 14.3789L1044.6 14.0234H1047.55C1050.93 13.1849 1053.77 12.6927 1056.09 12.5469C1058.78 8.5 1057.18 5.41016 1051.27 3.27734L1049.03 4.01562H1046.08H1044.96L1043.86 4.39844L1043.12 4.01562L1040.53 3.66016H1039.41C1038.24 3.40495 1037.26 3.27734 1036.45 3.27734L1035.71 4.39844ZM1071.92 7.70703L1069.07 12.6562L1065.74 22.6094L1062.59 24.5234L1061.25 27.8867L1061.61 31.3594C1060.13 34.3307 1058.86 37.2747 1057.78 40.1914L1057.07 50.0898C1058.6 51.9857 1060.25 53.1615 1062.02 53.6172L1065.55 50.0898L1068.69 39.0156L1076.87 37.375C1075.63 44.9219 1075.47 48.4766 1076.4 48.0391L1078.97 54.3281C1088.49 39.7266 1089.66 24.888 1082.5 9.8125L1083.21 6.99609C1081.08 5.86589 1079.43 4.6901 1078.26 3.46875L1071.92 7.70703ZM1072.19 29.1719L1075.17 22.0625L1076.89 28.7891L1072.19 29.1719ZM1100.38 3.44141C1094.37 4.95443 1090.39 8.30859 1088.46 13.5039C1089.77 17.6237 1092.63 19.4831 1097.02 19.082C1096.69 20.9596 1096.57 22.582 1096.66 23.9492V35.1055C1096.74 38.0039 1096.61 40.4922 1096.28 42.5703C1096.65 44.375 1096.65 45.9883 1096.28 47.4102C1096.59 48.7956 1096.72 50.1536 1096.66 51.4844L1097.4 51.1289C1100.77 55.668 1103.76 54.5469 1106.34 47.7656V44.7852L1105.96 42.1875L1106.34 41.0664V38.4688L1106.7 36.2266C1107.41 32.8359 1107.66 29.9831 1107.44 27.668V26.5469C1108.6 23.0833 1109.11 19.8568 1108.94 16.8672C1113.44 15.7917 1115.68 12.9297 1115.64 8.28125C1110.9 4.4349 1105.82 2.82161 1100.38 3.44141ZM1138.14 3.46875C1137.89 3.92448 1137.62 4.1888 1137.35 4.26172H1136.18H1134.97C1131.87 6.08464 1129.77 6.27604 1128.66 4.83594L1127.15 5.38281L1125.07 10.6055L1124.28 11.3984L1120.32 16.5391L1119.91 17.7422L1118.73 20.9141L1118.32 22.0898L1115.56 29.2266L1117.14 33.9844C1115.21 43.0807 1118.12 49.5612 1125.87 53.4258C1127.42 53.8268 1128.87 53.9544 1130.21 53.8086C1143.19 48.1758 1151.12 38.7969 1154 25.6719C1153.27 14.2057 1147.99 6.80469 1138.14 3.46875ZM1135.77 17.332C1139.43 18.0794 1141.68 21.1237 1142.52 26.4648C1140.28 33.5013 1136.58 38.9154 1131.42 42.707C1129.83 39.3893 1129.3 36.0898 1129.83 32.8086C1129.32 30.3294 1129.18 28.2148 1129.42 26.4648L1130.62 24.8789L1132.59 21.707C1134.07 20.2305 1135.13 18.7721 1135.77 17.332ZM1166.31 3.44141C1158.58 4.68099 1155.92 12.6471 1158.32 27.3398C1157.74 30.0924 1156.86 32.362 1155.67 34.1484C1155.84 36.0443 1156.28 37.5664 1157.01 38.7148L1157.34 39.8359V45.168C1157.61 48.5221 1157.72 51.3021 1157.67 53.5078C1158.05 53.763 1158.27 54.0182 1158.32 54.2734C1159.67 54.875 1161 54.9935 1162.32 54.6289C1162.72 53.7357 1163.16 52.9792 1163.66 52.3594L1163.98 51.5938C1164.48 48.6042 1165.25 46.207 1166.31 44.4023L1167.98 47.8203L1169.29 48.5586L1170.63 50.0898L1172.27 50.8555L1174.27 51.9766L1175.61 53.125C1177.36 53.7995 1178.8 54.556 1179.93 55.3945L1181.24 56.1602L1182.58 56.543L1185.23 58.4297L1186.24 58.8125L1186.9 59.5781L1187.88 59.9609L1188.89 60.3164L1194.2 63.7344L1198.52 64.5L1200.19 61.8477V59.1953C1199.8 58.9401 1199.59 58.6849 1199.53 58.4297C1199.13 58.1745 1198.9 57.9193 1198.85 57.6641L1198.19 57.2812L1197.21 56.543C1196.17 55.6862 1195.39 54.8021 1194.88 53.8906C1193.57 53.1432 1192.57 52.2591 1191.88 51.2383L1191.22 50.8555L1190.56 50.4727L1188.57 48.9414L1186.57 48.2031L1185.91 47.4375L1185.23 47.0547C1182.9 45.9974 1181.02 44.6029 1179.6 42.8711L1178.91 42.5156L1178.26 42.1328L1176.26 40.6016C1174.06 38.9609 1172.4 37.0651 1171.29 34.9141L1169.62 33.4102C1183.18 27.0482 1188.17 19.2096 1184.57 9.89453C1178.5 5.48307 1172.42 3.33203 1166.31 3.44141ZM1167.62 13.0664C1173.84 14.6706 1173.51 16.9948 1166.64 20.0391V19.0547L1167.62 13.0664ZM78.875 71.207L74.0625 74.9258C72.75 76.2383 71.7565 77.3503 71.082 78.2617C69.4232 81.8164 67.3177 84.5417 64.7656 86.4375C62.1224 82.8099 59.2786 80.0846 56.2344 78.2617C56.2344 76.4023 56.1068 74.9167 55.8516 73.8047L51.7773 70.8516C50.0273 72.9479 48.0495 73.5586 45.8438 72.6836C44.6224 74.3971 43.875 76.138 43.6016 77.9062C45.0417 80.0938 45.6615 82.1901 45.4609 84.1953V85.3164C45.1146 86.3372 44.9961 87.3307 45.1055 88.2969L44.3398 93.1094C44.2669 95.0234 44.0208 96.6367 43.6016 97.9492C43.6016 101.34 43.1094 104.311 42.125 106.863L42.5078 109.461C42.8906 110.372 43.1367 111.238 43.2461 112.059L44.7227 118.758L45.4609 118.375L47.3203 116.133L48.7969 114.301L49.1797 113.18L49.5625 112.059L51.7773 107.602L52.5156 102.406V100.93L52.8984 100.164L53.2539 96.8281V95.7344V94.6133L53.6367 93.4922C53.7279 91.4505 53.974 89.7188 54.375 88.2969C57.7474 91.9427 59.6068 96.026 59.9531 100.547C60.8646 101.677 61.4844 102.789 61.8125 103.883L63.2891 103.527C63.5443 103.09 63.7904 102.844 64.0273 102.789L67.0078 97.5664L67.7461 97.2109L68.4844 96.8281L68.8672 96.0898L69.6055 95.7344C70.5169 94.513 71.3828 93.5195 72.2031 92.7539C72.2031 95.4518 71.957 97.6758 71.4648 99.4258V100.547C70.5352 104.029 70.2891 107.246 70.7266 110.199L69.9609 112.441L70.7266 120.59L72.2031 120.973C79.276 111.566 82.3659 100.301 81.4727 87.1758C82.2018 85.3893 82.5755 83.7852 82.5938 82.3633C83.4323 80.9961 84.0521 79.7565 84.4531 78.6445C83.9245 75.819 83.7969 73.3398 84.0703 71.207C82.4661 70.569 80.9805 70.3229 79.6133 70.4688L78.875 71.207ZM99.082 74.707L96.2383 79.6562L92.9023 89.6094L89.7578 91.5234L88.418 94.8867L88.7734 98.3594C87.2969 101.331 86.0208 104.275 84.9453 107.191L84.2344 117.09C85.7656 118.986 87.4154 120.161 89.1836 120.617L92.7109 117.09L95.8555 106.016L104.031 104.375C102.792 111.922 102.637 115.477 103.566 115.039L106.137 121.328C115.652 106.727 116.828 91.888 109.664 76.8125L110.375 73.9961C108.242 72.8659 106.592 71.6901 105.426 70.4688L99.082 74.707ZM99.3555 96.1719L102.336 89.0625L104.059 95.7891L99.3555 96.1719ZM140.945 70.3594C129.68 71.4896 123.618 76.3568 122.762 84.9609C124.329 92.599 131.102 97.5938 143.078 99.9453C144.19 101.003 144.783 102.188 144.855 103.5C141.283 107.219 137.363 109.716 133.098 110.992C130.819 112.469 128.677 113.417 126.672 113.836C126.435 114.109 126.198 114.228 125.961 114.191C123.427 115.613 121.167 116.561 119.18 117.035C117.576 118.038 116.391 119.104 115.625 120.234C131.794 122.276 144.035 118.238 152.348 108.121C156.467 97.7122 150.525 90.8307 134.52 87.4766C133.298 86.5833 132.35 85.6263 131.676 84.6055C134.866 80.431 139.259 78.7721 144.855 79.6289C149.34 73.6133 148.036 70.5234 140.945 70.3594ZM168.699 74.707L165.855 79.6562L162.52 89.6094L159.375 91.5234L158.035 94.8867L158.391 98.3594C156.914 101.331 155.638 104.275 154.562 107.191L153.852 117.09C155.383 118.986 157.033 120.161 158.801 120.617L162.328 117.09L165.473 106.016L173.648 104.375C172.409 111.922 172.254 115.477 173.184 115.039L175.754 121.328C185.27 106.727 186.445 91.888 179.281 76.8125L179.992 73.9961C177.859 72.8659 176.21 71.6901 175.043 70.4688L168.699 74.707ZM168.973 96.1719L171.953 89.0625L173.676 95.7891L168.973 96.1719ZM210.562 70.3594C199.297 71.4896 193.236 76.3568 192.379 84.9609C193.947 92.599 200.719 97.5938 212.695 99.9453C213.807 101.003 214.4 102.188 214.473 103.5C210.9 107.219 206.98 109.716 202.715 110.992C200.436 112.469 198.294 113.417 196.289 113.836C196.052 114.109 195.815 114.228 195.578 114.191C193.044 115.613 190.784 116.561 188.797 117.035C187.193 118.038 186.008 119.104 185.242 120.234C201.411 122.276 213.652 118.238 221.965 108.121C226.085 97.7122 220.142 90.8307 204.137 87.4766C202.915 86.5833 201.967 85.6263 201.293 84.6055C204.483 80.431 208.876 78.7721 214.473 79.6289C218.957 73.6133 217.654 70.5234 210.562 70.3594ZM233.504 70.4141C232.374 71.8359 231.207 72.8932 230.004 73.5859C229.913 75.3906 229.676 76.9128 229.293 78.1523V79.1914L228.582 82.0078C228.564 83.2474 228.445 84.1862 228.227 84.8242C228.062 86.5195 227.835 87.9232 227.543 89.0352V90.0742C227.197 91.0404 227.078 91.9792 227.188 92.8906C226.75 94.2578 226.513 95.5521 226.477 96.7734L226.121 99.207C225.629 102.561 225.046 105.259 224.371 107.301L224.727 113.973C224.982 114.319 225.1 114.674 225.082 115.039L225.438 116.789L226.121 119.934C227.288 119.478 228.227 119.013 228.938 118.539L229.293 117.5L232.793 110.117V109.051L233.148 108.367L233.504 106.945L234.57 100.273L235.254 100.629L236.32 100.984L237.004 101.34C240.777 102.488 243.831 103.19 246.164 103.445V104.484C246.984 106.654 247.449 108.531 247.559 110.117C247.358 114.292 247.941 117.919 249.309 121L252.125 117.5C252.471 116.297 252.818 115.358 253.164 114.684L253.875 113.617L254.23 112.578L254.586 111.156L254.941 110.117L255.625 109.051L255.98 108.012C256.163 106.335 256.518 104.922 257.047 103.773L258.441 99.918V98.8789V96.0625C258.022 95.2604 257.785 94.4401 257.73 93.6016L258.086 92.207V91.1406C258.323 90.0286 258.441 89.0898 258.441 88.3242V87.2852V86.2188C258.678 85.1068 258.797 84.168 258.797 83.4023V82.3633V80.9414V79.9023V72.875C254.203 69.2292 250.922 70.2865 248.953 76.0469L250.02 77.4414L250.375 78.1523V80.2578L250.02 81.2969C250.348 86.4922 249.874 91.0586 248.598 94.9961L246.164 94.6406L243.703 94.3125L242.992 93.957H241.926L239.465 92.8906L235.965 91.4961V90.0742C236.366 88.7799 236.603 87.6133 236.676 86.5742C236.895 85.4622 237.004 84.5234 237.004 83.7578L237.359 83.0469V82.0078L237.715 79.5469C238.444 76.849 238.681 74.388 238.426 72.1641C237.077 70.8333 235.673 70.25 234.215 70.4141H233.504ZM269.898 70.4141C267.602 72.5651 266.499 75.1172 266.59 78.0703C267.319 79.4375 267.811 80.7773 268.066 82.0898H269.16C271.931 80.8685 274.483 80.2578 276.816 80.2578V81.3516C276.142 83.7396 275.777 85.8086 275.723 87.5586L274.984 89.7461L274.273 95.9531L273.891 97.0469L273.535 100.684L273.18 101.422C273.052 104.047 272.806 106.234 272.441 107.984C267.064 109.133 264.266 108.276 264.047 105.414C260.529 107.328 258.706 110.126 258.578 113.809L260.027 114.902L264.047 116.379L265.141 116.734L265.879 117.09L266.973 117.473L275.367 119.66C275.659 120.079 275.777 120.562 275.723 121.109L278.648 120.754L281.191 120.371C283.78 120.572 285.967 120.335 287.754 119.66C288.264 118.493 288.629 117.4 288.848 116.379C285.311 114.319 282.759 111.885 281.191 109.078L281.547 107.602V106.152L281.93 104.32V103.227L282.285 101.777L282.641 100.684V99.2344L283.023 97.7578L283.379 93.7656L283.734 92.2891V91.1953L284.117 90.4844L285.211 83.1836C292.083 83.3659 295.365 81.2969 295.055 76.9766C294.161 75.2812 293.314 73.9414 292.512 72.957L291.418 72.6016L287.398 71.8633C286.049 72.0456 284.828 72.0456 283.734 71.8633L283.023 71.5078H281.93H280.836H279.742L278.266 71.1523C275.057 71.3164 272.268 71.0703 269.898 70.4141ZM321.414 72.8477C321.049 74.2148 320.812 75.3997 320.703 76.4023V77.4414C320.174 79.1732 319.947 80.7135 320.02 82.0625C319.582 83.4297 319.345 84.7331 319.309 85.9727C317.814 86.9206 316.747 87.987 316.109 89.1719L316.82 92.3438C315.854 94.4036 315.973 96.2995 317.176 98.0312L316.82 100.52L316.465 101.23L316.109 103.336L315.754 106.18C315.827 108.367 315.59 110.263 315.043 111.867C315.699 114.146 316.055 116.033 316.109 117.527L316.82 120.727C317.531 120.854 318.124 120.38 318.598 119.305L319.309 118.594L319.664 117.883L320.375 117.527C320.812 116.124 321.396 114.948 322.125 114L322.48 112.934C323.21 111.056 323.921 109.516 324.613 108.312C324.759 105.523 325.352 103.044 326.391 100.875L327.102 102.27L327.812 102.98L328.523 104.047L328.879 105.113C330.118 106.517 331.057 107.82 331.695 109.023L332.762 111.512C333.673 112.496 334.384 113.444 334.895 114.355L335.25 115.395C337.146 116.98 338.568 118.521 339.516 120.016L340.227 120.371L342.332 121.082C343.134 120.152 343.608 119.323 343.754 118.594L344.465 116.461C343.827 115.13 343.471 113.954 343.398 112.934L343.043 111.512C342.059 109.525 341.357 107.866 340.938 106.535C340.518 106.298 340.281 106.061 340.227 105.824L339.516 104.758L339.16 103.691C338.741 103.454 338.504 103.217 338.449 102.98L338.094 102.27L337.383 101.23C335.359 98.4596 333.938 96.0898 333.117 94.1211C340.974 92.0065 345.823 87.513 347.664 80.6406C341.776 80.4219 336.69 81.8438 332.406 84.9062L328.523 86.3281V84.9062L328.879 83.4844V82.418L329.234 81.3516V80.2852L330.301 74.625C328.551 72.2188 326.418 70.7969 323.902 70.3594L321.414 72.8477ZM358.82 70.4141C356.523 72.5651 355.421 75.1172 355.512 78.0703C356.241 79.4375 356.733 80.7773 356.988 82.0898H358.082C360.853 80.8685 363.405 80.2578 365.738 80.2578V81.3516C365.064 83.7396 364.699 85.8086 364.645 87.5586L363.906 89.7461L363.195 95.9531L362.812 97.0469L362.457 100.684L362.102 101.422C361.974 104.047 361.728 106.234 361.363 107.984C355.986 109.133 353.188 108.276 352.969 105.414C349.451 107.328 347.628 110.126 347.5 113.809L348.949 114.902L352.969 116.379L354.062 116.734L354.801 117.09L355.895 117.473L364.289 119.66C364.581 120.079 364.699 120.562 364.645 121.109L367.57 120.754L370.113 120.371C372.702 120.572 374.889 120.335 376.676 119.66C377.186 118.493 377.551 117.4 377.77 116.379C374.233 114.319 371.681 111.885 370.113 109.078L370.469 107.602V106.152L370.852 104.32V103.227L371.207 101.777L371.562 100.684V99.2344L371.945 97.7578L372.301 93.7656L372.656 92.2891V91.1953L373.039 90.4844L374.133 83.1836C381.005 83.3659 384.286 81.2969 383.977 76.9766C383.083 75.2812 382.236 73.9414 381.434 72.957L380.34 72.6016L376.32 71.8633C374.971 72.0456 373.75 72.0456 372.656 71.8633L371.945 71.5078H370.852H369.758H368.664L367.188 71.1523C363.979 71.3164 361.19 71.0703 358.82 70.4141ZM408.039 70.3594C396.773 71.4896 390.712 76.3568 389.855 84.9609C391.423 92.599 398.195 97.5938 410.172 99.9453C411.284 101.003 411.876 102.188 411.949 103.5C408.376 107.219 404.457 109.716 400.191 110.992C397.913 112.469 395.771 113.417 393.766 113.836C393.529 114.109 393.292 114.228 393.055 114.191C390.521 115.613 388.26 116.561 386.273 117.035C384.669 118.038 383.484 119.104 382.719 120.234C398.888 122.276 411.129 118.238 419.441 108.121C423.561 97.7122 417.618 90.8307 401.613 87.4766C400.392 86.5833 399.444 85.6263 398.77 84.6055C401.96 80.431 406.353 78.7721 411.949 79.6289C416.434 73.6133 415.13 70.5234 408.039 70.3594ZM430.98 70.4141C429.85 71.8359 428.684 72.8932 427.48 73.5859C427.389 75.3906 427.152 76.9128 426.77 78.1523V79.1914L426.059 82.0078C426.04 83.2474 425.922 84.1862 425.703 84.8242C425.539 86.5195 425.311 87.9232 425.02 89.0352V90.0742C424.673 91.0404 424.555 91.9792 424.664 92.8906C424.227 94.2578 423.99 95.5521 423.953 96.7734L423.598 99.207C423.105 102.561 422.522 105.259 421.848 107.301L422.203 113.973C422.458 114.319 422.577 114.674 422.559 115.039L422.914 116.789L423.598 119.934C424.764 119.478 425.703 119.013 426.414 118.539L426.77 117.5L430.27 110.117V109.051L430.625 108.367L430.98 106.945L432.047 100.273L432.73 100.629L433.797 100.984L434.48 101.34C438.254 102.488 441.307 103.19 443.641 103.445V104.484C444.461 106.654 444.926 108.531 445.035 110.117C444.835 114.292 445.418 117.919 446.785 121L449.602 117.5C449.948 116.297 450.294 115.358 450.641 114.684L451.352 113.617L451.707 112.578L452.062 111.156L452.418 110.117L453.102 109.051L453.457 108.012C453.639 106.335 453.995 104.922 454.523 103.773L455.918 99.918V98.8789V96.0625C455.499 95.2604 455.262 94.4401 455.207 93.6016L455.562 92.207V91.1406C455.799 90.0286 455.918 89.0898 455.918 88.3242V87.2852V86.2188C456.155 85.1068 456.273 84.168 456.273 83.4023V82.3633V80.9414V79.9023V72.875C451.68 69.2292 448.398 70.2865 446.43 76.0469L447.496 77.4414L447.852 78.1523V80.2578L447.496 81.2969C447.824 86.4922 447.35 91.0586 446.074 94.9961L443.641 94.6406L441.18 94.3125L440.469 93.957H439.402L436.941 92.8906L433.441 91.4961V90.0742C433.842 88.7799 434.079 87.6133 434.152 86.5742C434.371 85.4622 434.48 84.5234 434.48 83.7578L434.836 83.0469V82.0078L435.191 79.5469C435.921 76.849 436.158 74.388 435.902 72.1641C434.553 70.8333 433.15 70.25 431.691 70.4141H430.98ZM467.375 70.4141C465.078 72.5651 463.975 75.1172 464.066 78.0703C464.796 79.4375 465.288 80.7773 465.543 82.0898H466.637C469.408 80.8685 471.96 80.2578 474.293 80.2578V81.3516C473.618 83.7396 473.254 85.8086 473.199 87.5586L472.461 89.7461L471.75 95.9531L471.367 97.0469L471.012 100.684L470.656 101.422C470.529 104.047 470.283 106.234 469.918 107.984C464.54 109.133 461.742 108.276 461.523 105.414C458.005 107.328 456.182 110.126 456.055 113.809L457.504 114.902L461.523 116.379L462.617 116.734L463.355 117.09L464.449 117.473L472.844 119.66C473.135 120.079 473.254 120.562 473.199 121.109L476.125 120.754L478.668 120.371C481.257 120.572 483.444 120.335 485.23 119.66C485.741 118.493 486.105 117.4 486.324 116.379C482.788 114.319 480.236 111.885 478.668 109.078L479.023 107.602V106.152L479.406 104.32V103.227L479.762 101.777L480.117 100.684V99.2344L480.5 97.7578L480.855 93.7656L481.211 92.2891V91.1953L481.594 90.4844L482.688 83.1836C489.56 83.3659 492.841 81.2969 492.531 76.9766C491.638 75.2812 490.79 73.9414 489.988 72.957L488.895 72.6016L484.875 71.8633C483.526 72.0456 482.305 72.0456 481.211 71.8633L480.5 71.5078H479.406H478.312H477.219L475.742 71.1523C472.534 71.3164 469.745 71.0703 467.375 70.4141ZM526.984 71.207L522.172 74.9258C520.859 76.2383 519.866 77.3503 519.191 78.2617C517.533 81.8164 515.427 84.5417 512.875 86.4375C510.232 82.8099 507.388 80.0846 504.344 78.2617C504.344 76.4023 504.216 74.9167 503.961 73.8047L499.887 70.8516C498.137 72.9479 496.159 73.5586 493.953 72.6836C492.732 74.3971 491.984 76.138 491.711 77.9062C493.151 80.0938 493.771 82.1901 493.57 84.1953V85.3164C493.224 86.3372 493.105 87.3307 493.215 88.2969L492.449 93.1094C492.376 95.0234 492.13 96.6367 491.711 97.9492C491.711 101.34 491.219 104.311 490.234 106.863L490.617 109.461C491 110.372 491.246 111.238 491.355 112.059L492.832 118.758L493.57 118.375L495.43 116.133L496.906 114.301L497.289 113.18L497.672 112.059L499.887 107.602L500.625 102.406V100.93L501.008 100.164L501.363 96.8281V95.7344V94.6133L501.746 93.4922C501.837 91.4505 502.083 89.7188 502.484 88.2969C505.857 91.9427 507.716 96.026 508.062 100.547C508.974 101.677 509.594 102.789 509.922 103.883L511.398 103.527C511.654 103.09 511.9 102.844 512.137 102.789L515.117 97.5664L515.855 97.2109L516.594 96.8281L516.977 96.0898L517.715 95.7344C518.626 94.513 519.492 93.5195 520.312 92.7539C520.312 95.4518 520.066 97.6758 519.574 99.4258V100.547C518.645 104.029 518.398 107.246 518.836 110.199L518.07 112.441L518.836 120.59L520.312 120.973C527.385 111.566 530.475 100.301 529.582 87.1758C530.311 85.3893 530.685 83.7852 530.703 82.3633C531.542 80.9961 532.161 79.7565 532.562 78.6445C532.034 75.819 531.906 73.3398 532.18 71.207C530.576 70.569 529.09 70.3229 527.723 70.4688L526.984 71.207ZM554.738 70.4688C554.483 70.9245 554.219 71.1888 553.945 71.2617H552.77H551.566C548.467 73.0846 546.362 73.276 545.25 71.8359L543.746 72.3828L541.668 77.6055L540.875 78.3984L536.91 83.5391L536.5 84.7422L535.324 87.9141L534.914 89.0898L532.152 96.2266L533.738 100.984C531.806 110.081 534.714 116.561 542.461 120.426C544.01 120.827 545.46 120.954 546.809 120.809C559.788 115.176 567.717 105.797 570.598 92.6719C569.868 81.2057 564.582 73.8047 554.738 70.4688ZM552.359 84.332C556.023 85.0794 558.275 88.1237 559.113 93.4648C556.871 100.501 553.171 105.915 548.012 109.707C546.426 106.389 545.897 103.09 546.426 99.8086C545.915 97.3294 545.779 95.2148 546.016 93.4648L547.219 91.8789L549.188 88.707C550.664 87.2305 551.721 85.7721 552.359 84.332ZM583.969 70.4414C577.953 71.9544 573.979 75.3086 572.047 80.5039C573.359 84.6237 576.212 86.4831 580.605 86.082C580.277 87.9596 580.159 89.582 580.25 90.9492V102.105C580.323 105.004 580.195 107.492 579.867 109.57C580.232 111.375 580.232 112.988 579.867 114.41C580.177 115.796 580.305 117.154 580.25 118.484L580.988 118.129C584.361 122.668 587.341 121.547 589.93 114.766V111.785L589.547 109.188L589.93 108.066V105.469L590.285 103.227C590.996 99.8359 591.242 96.9831 591.023 94.668V93.5469C592.19 90.0833 592.691 86.8568 592.527 83.8672C597.03 82.7917 599.263 79.9297 599.227 75.2812C594.487 71.4349 589.401 69.8216 583.969 70.4414ZM621.73 70.4688C621.475 70.9245 621.211 71.1888 620.938 71.2617H619.762H618.559C615.46 73.0846 613.354 73.276 612.242 71.8359L610.738 72.3828L608.66 77.6055L607.867 78.3984L603.902 83.5391L603.492 84.7422L602.316 87.9141L601.906 89.0898L599.145 96.2266L600.73 100.984C598.798 110.081 601.706 116.561 609.453 120.426C611.003 120.827 612.452 120.954 613.801 120.809C626.78 115.176 634.71 105.797 637.59 92.6719C636.861 81.2057 631.574 73.8047 621.73 70.4688ZM619.352 84.332C623.016 85.0794 625.267 88.1237 626.105 93.4648C623.863 100.501 620.163 105.915 615.004 109.707C613.418 106.389 612.889 103.09 613.418 99.8086C612.908 97.3294 612.771 95.2148 613.008 93.4648L614.211 91.8789L616.18 88.707C617.656 87.2305 618.714 85.7721 619.352 84.332ZM664.66 70.3594C662.436 72.0182 661.014 73.987 660.395 76.2656C660.686 78.7083 661.561 80.7773 663.02 82.4727L663.348 84.7695L663.676 86.7383C664.113 88.0508 664.332 89.2539 664.332 90.3477C665.134 92.9362 665.572 95.224 665.645 97.2109C667.176 101.422 667.832 105.25 667.613 108.695C668.16 109.57 668.479 110.445 668.57 111.32C668.953 114.62 669.828 117.454 671.195 119.824H673.82C674.841 118.676 675.716 117.801 676.445 117.199L677.102 115.559C677.849 114.556 678.396 113.69 678.742 112.961V111.977L679.398 111.32C680.055 108.841 680.82 106.872 681.695 105.414C682.023 106.617 682.242 107.711 682.352 108.695C683.354 110.792 683.783 112.751 683.637 114.574L684.293 115.23L684.621 116.215C685.697 118.275 686.462 120.025 686.918 121.465C695.376 114.793 700.289 106.708 701.656 97.2109C703.661 92.7448 704.536 88.3789 704.281 84.1133C705.302 81.543 705.849 79.1458 705.922 76.9219C704.172 78.0339 702.859 79.3372 701.984 80.832L701.328 82.1445L700.672 83.1289L700.344 84.1133L699.688 84.7695L699.031 86.082C698.466 87.8138 697.819 89.2357 697.09 90.3477L696.762 91.332L696.434 91.9883L696.105 92.9727L695.777 93.6289C695.212 94.7044 694.775 95.6797 694.465 96.5547L692.824 99.8359L692.496 100.492L692.168 101.148C691.421 102.789 690.655 104.102 689.871 105.086L689.543 103.773L689.215 103.117C688.777 101.057 688.23 99.3073 687.574 97.8672C686.991 96.2083 686.444 94.9049 685.934 93.957C686.626 89.5273 686.736 85.6992 686.262 82.4727C686.079 82.0716 685.861 81.8529 685.605 81.8164L684.621 82.8008L683.965 83.457C680.993 82.9831 678.268 83.8581 675.789 86.082L674.805 88.0508C676.5 91.9154 676.391 95.4062 674.477 98.5234L674.148 97.2109L673.82 95.2695C673.583 94.6862 673.474 94.1393 673.492 93.6289L672.836 91.9883V90.3477C672.599 90.0195 672.49 89.6914 672.508 89.3633C671.924 87.194 671.596 85.3346 671.523 83.7852C671.104 82.5273 670.885 81.4336 670.867 80.5039L670.539 79.1914L669.227 71.6719C667.695 70.7057 666.173 70.2682 664.66 70.3594ZM717.297 70.4141C715 72.5651 713.897 75.1172 713.988 78.0703C714.717 79.4375 715.21 80.7773 715.465 82.0898H716.559C719.329 80.8685 721.882 80.2578 724.215 80.2578V81.3516C723.54 83.7396 723.176 85.8086 723.121 87.5586L722.383 89.7461L721.672 95.9531L721.289 97.0469L720.934 100.684L720.578 101.422C720.451 104.047 720.204 106.234 719.84 107.984C714.462 109.133 711.664 108.276 711.445 105.414C707.927 107.328 706.104 110.126 705.977 113.809L707.426 114.902L711.445 116.379L712.539 116.734L713.277 117.09L714.371 117.473L722.766 119.66C723.057 120.079 723.176 120.562 723.121 121.109L726.047 120.754L728.59 120.371C731.178 120.572 733.366 120.335 735.152 119.66C735.663 118.493 736.027 117.4 736.246 116.379C732.71 114.319 730.158 111.885 728.59 109.078L728.945 107.602V106.152L729.328 104.32V103.227L729.684 101.777L730.039 100.684V99.2344L730.422 97.7578L730.777 93.7656L731.133 92.2891V91.1953L731.516 90.4844L732.609 83.1836C739.482 83.3659 742.763 81.2969 742.453 76.9766C741.56 75.2812 740.712 73.9414 739.91 72.957L738.816 72.6016L734.797 71.8633C733.448 72.0456 732.227 72.0456 731.133 71.8633L730.422 71.5078H729.328H728.234H727.141L725.664 71.1523C722.456 71.3164 719.667 71.0703 717.297 70.4141ZM753.117 70.4414C747.102 71.9544 743.128 75.3086 741.195 80.5039C742.508 84.6237 745.361 86.4831 749.754 86.082C749.426 87.9596 749.307 89.582 749.398 90.9492V102.105C749.471 105.004 749.344 107.492 749.016 109.57C749.38 111.375 749.38 112.988 749.016 114.41C749.326 115.796 749.453 117.154 749.398 118.484L750.137 118.129C753.509 122.668 756.49 121.547 759.078 114.766V111.785L758.695 109.188L759.078 108.066V105.469L759.434 103.227C760.145 99.8359 760.391 96.9831 760.172 94.668V93.5469C761.339 90.0833 761.84 86.8568 761.676 83.8672C766.178 82.7917 768.411 79.9297 768.375 75.2812C763.635 71.4349 758.549 69.8216 753.117 70.4414ZM778.52 70.4141C777.389 71.8359 776.223 72.8932 775.02 73.5859C774.928 75.3906 774.691 76.9128 774.309 78.1523V79.1914L773.598 82.0078C773.579 83.2474 773.461 84.1862 773.242 84.8242C773.078 86.5195 772.85 87.9232 772.559 89.0352V90.0742C772.212 91.0404 772.094 91.9792 772.203 92.8906C771.766 94.2578 771.529 95.5521 771.492 96.7734L771.137 99.207C770.645 102.561 770.061 105.259 769.387 107.301L769.742 113.973C769.997 114.319 770.116 114.674 770.098 115.039L770.453 116.789L771.137 119.934C772.303 119.478 773.242 119.013 773.953 118.539L774.309 117.5L777.809 110.117V109.051L778.164 108.367L778.52 106.945L779.586 100.273L780.27 100.629L781.336 100.984L782.02 101.34C785.793 102.488 788.846 103.19 791.18 103.445V104.484C792 106.654 792.465 108.531 792.574 110.117C792.374 114.292 792.957 117.919 794.324 121L797.141 117.5C797.487 116.297 797.833 115.358 798.18 114.684L798.891 113.617L799.246 112.578L799.602 111.156L799.957 110.117L800.641 109.051L800.996 108.012C801.178 106.335 801.534 104.922 802.062 103.773L803.457 99.918V98.8789V96.0625C803.038 95.2604 802.801 94.4401 802.746 93.6016L803.102 92.207V91.1406C803.339 90.0286 803.457 89.0898 803.457 88.3242V87.2852V86.2188C803.694 85.1068 803.812 84.168 803.812 83.4023V82.3633V80.9414V79.9023V72.875C799.219 69.2292 795.938 70.2865 793.969 76.0469L795.035 77.4414L795.391 78.1523V80.2578L795.035 81.2969C795.363 86.4922 794.889 91.0586 793.613 94.9961L791.18 94.6406L788.719 94.3125L788.008 93.957H786.941L784.48 92.8906L780.98 91.4961V90.0742C781.382 88.7799 781.618 87.6133 781.691 86.5742C781.91 85.4622 782.02 84.5234 782.02 83.7578L782.375 83.0469V82.0078L782.73 79.5469C783.46 76.849 783.697 74.388 783.441 72.1641C782.092 70.8333 780.689 70.25 779.23 70.4141H778.52ZM832.742 72.8477C832.378 74.2148 832.141 75.3997 832.031 76.4023V77.4414C831.503 79.1732 831.275 80.7135 831.348 82.0625C830.91 83.4297 830.673 84.7331 830.637 85.9727C829.142 86.9206 828.076 87.987 827.438 89.1719L828.148 92.3438C827.182 94.4036 827.301 96.2995 828.504 98.0312L828.148 100.52L827.793 101.23L827.438 103.336L827.082 106.18C827.155 108.367 826.918 110.263 826.371 111.867C827.027 114.146 827.383 116.033 827.438 117.527L828.148 120.727C828.859 120.854 829.452 120.38 829.926 119.305L830.637 118.594L830.992 117.883L831.703 117.527C832.141 116.124 832.724 114.948 833.453 114L833.809 112.934C834.538 111.056 835.249 109.516 835.941 108.312C836.087 105.523 836.68 103.044 837.719 100.875L838.43 102.27L839.141 102.98L839.852 104.047L840.207 105.113C841.447 106.517 842.385 107.82 843.023 109.023L844.09 111.512C845.001 112.496 845.712 113.444 846.223 114.355L846.578 115.395C848.474 116.98 849.896 118.521 850.844 120.016L851.555 120.371L853.66 121.082C854.462 120.152 854.936 119.323 855.082 118.594L855.793 116.461C855.155 115.13 854.799 113.954 854.727 112.934L854.371 111.512C853.387 109.525 852.685 107.866 852.266 106.535C851.846 106.298 851.609 106.061 851.555 105.824L850.844 104.758L850.488 103.691C850.069 103.454 849.832 103.217 849.777 102.98L849.422 102.27L848.711 101.23C846.688 98.4596 845.266 96.0898 844.445 94.1211C852.302 92.0065 857.151 87.513 858.992 80.6406C853.104 80.4219 848.018 81.8438 843.734 84.9062L839.852 86.3281V84.9062L840.207 83.4844V82.418L840.562 81.3516V80.2852L841.629 74.625C839.879 72.2188 837.746 70.7969 835.23 70.3594L832.742 72.8477ZM870.148 70.4141C867.852 72.5651 866.749 75.1172 866.84 78.0703C867.569 79.4375 868.061 80.7773 868.316 82.0898H869.41C872.181 80.8685 874.733 80.2578 877.066 80.2578V81.3516C876.392 83.7396 876.027 85.8086 875.973 87.5586L875.234 89.7461L874.523 95.9531L874.141 97.0469L873.785 100.684L873.43 101.422C873.302 104.047 873.056 106.234 872.691 107.984C867.314 109.133 864.516 108.276 864.297 105.414C860.779 107.328 858.956 110.126 858.828 113.809L860.277 114.902L864.297 116.379L865.391 116.734L866.129 117.09L867.223 117.473L875.617 119.66C875.909 120.079 876.027 120.562 875.973 121.109L878.898 120.754L881.441 120.371C884.03 120.572 886.217 120.335 888.004 119.66C888.514 118.493 888.879 117.4 889.098 116.379C885.561 114.319 883.009 111.885 881.441 109.078L881.797 107.602V106.152L882.18 104.32V103.227L882.535 101.777L882.891 100.684V99.2344L883.273 97.7578L883.629 93.7656L883.984 92.2891V91.1953L884.367 90.4844L885.461 83.1836C892.333 83.3659 895.615 81.2969 895.305 76.9766C894.411 75.2812 893.564 73.9414 892.762 72.957L891.668 72.6016L887.648 71.8633C886.299 72.0456 885.078 72.0456 883.984 71.8633L883.273 71.5078H882.18H881.086H879.992L878.516 71.1523C875.307 71.3164 872.518 71.0703 870.148 70.4141ZM919.367 70.3594C908.102 71.4896 902.04 76.3568 901.184 84.9609C902.751 92.599 909.523 97.5938 921.5 99.9453C922.612 101.003 923.204 102.188 923.277 103.5C919.704 107.219 915.785 109.716 911.52 110.992C909.241 112.469 907.099 113.417 905.094 113.836C904.857 114.109 904.62 114.228 904.383 114.191C901.849 115.613 899.589 116.561 897.602 117.035C895.997 118.038 894.812 119.104 894.047 120.234C910.216 122.276 922.457 118.238 930.77 108.121C934.889 97.7122 928.947 90.8307 912.941 87.4766C911.72 86.5833 910.772 85.6263 910.098 84.6055C913.288 80.431 917.681 78.7721 923.277 79.6289C927.762 73.6133 926.458 70.5234 919.367 70.3594ZM942.309 70.4141C941.178 71.8359 940.012 72.8932 938.809 73.5859C938.717 75.3906 938.48 76.9128 938.098 78.1523V79.1914L937.387 82.0078C937.368 83.2474 937.25 84.1862 937.031 84.8242C936.867 86.5195 936.639 87.9232 936.348 89.0352V90.0742C936.001 91.0404 935.883 91.9792 935.992 92.8906C935.555 94.2578 935.318 95.5521 935.281 96.7734L934.926 99.207C934.434 102.561 933.85 105.259 933.176 107.301L933.531 113.973C933.786 114.319 933.905 114.674 933.887 115.039L934.242 116.789L934.926 119.934C936.092 119.478 937.031 119.013 937.742 118.539L938.098 117.5L941.598 110.117V109.051L941.953 108.367L942.309 106.945L943.375 100.273L944.059 100.629L945.125 100.984L945.809 101.34C949.582 102.488 952.635 103.19 954.969 103.445V104.484C955.789 106.654 956.254 108.531 956.363 110.117C956.163 114.292 956.746 117.919 958.113 121L960.93 117.5C961.276 116.297 961.622 115.358 961.969 114.684L962.68 113.617L963.035 112.578L963.391 111.156L963.746 110.117L964.43 109.051L964.785 108.012C964.967 106.335 965.323 104.922 965.852 103.773L967.246 99.918V98.8789V96.0625C966.827 95.2604 966.59 94.4401 966.535 93.6016L966.891 92.207V91.1406C967.128 90.0286 967.246 89.0898 967.246 88.3242V87.2852V86.2188C967.483 85.1068 967.602 84.168 967.602 83.4023V82.3633V80.9414V79.9023V72.875C963.008 69.2292 959.727 70.2865 957.758 76.0469L958.824 77.4414L959.18 78.1523V80.2578L958.824 81.2969C959.152 86.4922 958.678 91.0586 957.402 94.9961L954.969 94.6406L952.508 94.3125L951.797 93.957H950.73L948.27 92.8906L944.77 91.4961V90.0742C945.171 88.7799 945.408 87.6133 945.48 86.5742C945.699 85.4622 945.809 84.5234 945.809 83.7578L946.164 83.0469V82.0078L946.52 79.5469C947.249 76.849 947.486 74.388 947.23 72.1641C945.882 70.8333 944.478 70.25 943.02 70.4141H942.309ZM978.703 70.4141C976.406 72.5651 975.303 75.1172 975.395 78.0703C976.124 79.4375 976.616 80.7773 976.871 82.0898H977.965C980.736 80.8685 983.288 80.2578 985.621 80.2578V81.3516C984.947 83.7396 984.582 85.8086 984.527 87.5586L983.789 89.7461L983.078 95.9531L982.695 97.0469L982.34 100.684L981.984 101.422C981.857 104.047 981.611 106.234 981.246 107.984C975.868 109.133 973.07 108.276 972.852 105.414C969.333 107.328 967.51 110.126 967.383 113.809L968.832 114.902L972.852 116.379L973.945 116.734L974.684 117.09L975.777 117.473L984.172 119.66C984.464 120.079 984.582 120.562 984.527 121.109L987.453 120.754L989.996 120.371C992.585 120.572 994.772 120.335 996.559 119.66C997.069 118.493 997.434 117.4 997.652 116.379C994.116 114.319 991.564 111.885 989.996 109.078L990.352 107.602V106.152L990.734 104.32V103.227L991.09 101.777L991.445 100.684V99.2344L991.828 97.7578L992.184 93.7656L992.539 92.2891V91.1953L992.922 90.4844L994.016 83.1836C1000.89 83.3659 1004.17 81.2969 1003.86 76.9766C1002.97 75.2812 1002.12 73.9414 1001.32 72.957L1000.22 72.6016L996.203 71.8633C994.854 72.0456 993.633 72.0456 992.539 71.8633L991.828 71.5078H990.734H989.641H988.547L987.07 71.1523C983.862 71.3164 981.073 71.0703 978.703 70.4141ZM1038.31 71.207L1033.5 74.9258C1032.19 76.2383 1031.19 77.3503 1030.52 78.2617C1028.86 81.8164 1026.76 84.5417 1024.2 86.4375C1021.56 82.8099 1018.72 80.0846 1015.67 78.2617C1015.67 76.4023 1015.54 74.9167 1015.29 73.8047L1011.21 70.8516C1009.46 72.9479 1007.49 73.5586 1005.28 72.6836C1004.06 74.3971 1003.31 76.138 1003.04 77.9062C1004.48 80.0938 1005.1 82.1901 1004.9 84.1953V85.3164C1004.55 86.3372 1004.43 87.3307 1004.54 88.2969L1003.78 93.1094C1003.7 95.0234 1003.46 96.6367 1003.04 97.9492C1003.04 101.34 1002.55 104.311 1001.56 106.863L1001.95 109.461C1002.33 110.372 1002.57 111.238 1002.68 112.059L1004.16 118.758L1004.9 118.375L1006.76 116.133L1008.23 114.301L1008.62 113.18L1009 112.059L1011.21 107.602L1011.95 102.406V100.93L1012.34 100.164L1012.69 96.8281V95.7344V94.6133L1013.07 93.4922C1013.17 91.4505 1013.41 89.7188 1013.81 88.2969C1017.18 91.9427 1019.04 96.026 1019.39 100.547C1020.3 101.677 1020.92 102.789 1021.25 103.883L1022.73 103.527C1022.98 103.09 1023.23 102.844 1023.46 102.789L1026.45 97.5664L1027.18 97.2109L1027.92 96.8281L1028.3 96.0898L1029.04 95.7344C1029.95 94.513 1030.82 93.5195 1031.64 92.7539C1031.64 95.4518 1031.39 97.6758 1030.9 99.4258V100.547C1029.97 104.029 1029.73 107.246 1030.16 110.199L1029.4 112.441L1030.16 120.59L1031.64 120.973C1038.71 111.566 1041.8 100.301 1040.91 87.1758C1041.64 85.3893 1042.01 83.7852 1042.03 82.3633C1042.87 80.9961 1043.49 79.7565 1043.89 78.6445C1043.36 75.819 1043.23 73.3398 1043.51 71.207C1041.9 70.569 1040.42 70.3229 1039.05 70.4688L1038.31 71.207ZM1066.07 70.4688C1065.81 70.9245 1065.55 71.1888 1065.27 71.2617H1064.1H1062.89C1059.8 73.0846 1057.69 73.276 1056.58 71.8359L1055.07 72.3828L1053 77.6055L1052.2 78.3984L1048.24 83.5391L1047.83 84.7422L1046.65 87.9141L1046.24 89.0898L1043.48 96.2266L1045.07 100.984C1043.13 110.081 1046.04 116.561 1053.79 120.426C1055.34 120.827 1056.79 120.954 1058.14 120.809C1071.12 115.176 1079.05 105.797 1081.93 92.6719C1081.2 81.2057 1075.91 73.8047 1066.07 70.4688ZM1063.69 84.332C1067.35 85.0794 1069.6 88.1237 1070.44 93.4648C1068.2 100.501 1064.5 105.915 1059.34 109.707C1057.75 106.389 1057.23 103.09 1057.75 99.8086C1057.24 97.3294 1057.11 95.2148 1057.34 93.4648L1058.55 91.8789L1060.52 88.707C1061.99 87.2305 1063.05 85.7721 1063.69 84.332ZM1095.3 70.4414C1089.28 71.9544 1085.31 75.3086 1083.38 80.5039C1084.69 84.6237 1087.54 86.4831 1091.93 86.082C1091.61 87.9596 1091.49 89.582 1091.58 90.9492V102.105C1091.65 105.004 1091.52 107.492 1091.2 109.57C1091.56 111.375 1091.56 112.988 1091.2 114.41C1091.51 115.796 1091.63 117.154 1091.58 118.484L1092.32 118.129C1095.69 122.668 1098.67 121.547 1101.26 114.766V111.785L1100.88 109.188L1101.26 108.066V105.469L1101.61 103.227C1102.32 99.8359 1102.57 96.9831 1102.35 94.668V93.5469C1103.52 90.0833 1104.02 86.8568 1103.86 83.8672C1108.36 82.7917 1110.59 79.9297 1110.55 75.2812C1105.82 71.4349 1100.73 69.8216 1095.3 70.4414ZM1133.06 70.4688C1132.8 70.9245 1132.54 71.1888 1132.27 71.2617H1131.09H1129.89C1126.79 73.0846 1124.68 73.276 1123.57 71.8359L1122.07 72.3828L1119.99 77.6055L1119.2 78.3984L1115.23 83.5391L1114.82 84.7422L1113.64 87.9141L1113.23 89.0898L1110.47 96.2266L1112.06 100.984C1110.13 110.081 1113.03 116.561 1120.78 120.426C1122.33 120.827 1123.78 120.954 1125.13 120.809C1138.11 115.176 1146.04 105.797 1148.92 92.6719C1148.19 81.2057 1142.9 73.8047 1133.06 70.4688ZM1130.68 84.332C1134.34 85.0794 1136.6 88.1237 1137.43 93.4648C1135.19 100.501 1131.49 105.915 1126.33 109.707C1124.75 106.389 1124.22 103.09 1124.75 99.8086C1124.24 97.3294 1124.1 95.2148 1124.34 93.4648L1125.54 91.8789L1127.51 88.707C1128.98 87.2305 1130.04 85.7721 1130.68 84.332ZM413.125 138.398C412.378 140.112 411.63 141.47 410.883 142.473L410.527 143.211C409.671 144.177 409.051 145.161 408.668 146.164C409.835 148.406 410.327 150.63 410.145 152.836C409.798 156.044 408.814 158.633 407.191 160.602C407.046 163.281 407.419 165.505 408.312 167.273L407.191 173.562L406.809 176.16C406.243 179.861 406.125 182.951 406.453 185.43C408.841 186.268 411.184 186.514 413.48 186.168H414.602C419.232 187.79 423.552 188.41 427.562 188.027C428.492 186.46 428.984 184.974 429.039 183.57C426.961 182.094 425.484 180.362 424.609 178.375L421.629 178.02C419.314 177.29 417.345 176.798 415.723 176.543V175.422L416.078 174.684V173.562L416.816 170.609L417.555 168.012H418.676L419.414 167.656H422.367C424.719 167.31 426.697 167.31 428.301 167.656C437.507 164.32 437.88 161.103 429.422 158.004L427.562 158.77H426.441L422.367 158.004L418.676 157.266V156.172L419.031 155.434L419.414 148.762L420.535 148.379L422.012 148.023H424.965C428.337 147.185 431.181 146.693 433.496 146.547C436.194 142.5 434.59 139.41 428.684 137.277L426.441 138.016H423.488H422.367L421.273 138.398L420.535 138.016L417.938 137.66H416.816C415.65 137.405 414.665 137.277 413.863 137.277L413.125 138.398ZM446.156 137.441C438.427 138.681 435.766 146.647 438.172 161.34C437.589 164.092 436.704 166.362 435.52 168.148C435.684 170.044 436.13 171.566 436.859 172.715L437.188 173.836V179.168C437.461 182.522 437.57 185.302 437.516 187.508C437.898 187.763 438.117 188.018 438.172 188.273C439.521 188.875 440.852 188.993 442.164 188.629C442.565 187.736 443.012 186.979 443.504 186.359L443.832 185.594C444.324 182.604 445.099 180.207 446.156 178.402L447.824 181.82L449.137 182.559L450.477 184.09L452.117 184.855L454.113 185.977L455.453 187.125C457.203 187.799 458.643 188.556 459.773 189.395L461.086 190.16L462.426 190.543L465.078 192.43L466.09 192.812L466.746 193.578L467.73 193.961L468.742 194.316L474.047 197.734L478.367 198.5L480.035 195.848V193.195C479.652 192.94 479.434 192.685 479.379 192.43C478.978 192.174 478.75 191.919 478.695 191.664L478.039 191.281L477.055 190.543C476.016 189.686 475.241 188.802 474.73 187.891C473.418 187.143 472.415 186.259 471.723 185.238L471.066 184.855L470.41 184.473L468.414 182.941L466.418 182.203L465.762 181.438L465.078 181.055C462.745 179.997 460.867 178.603 459.445 176.871L458.762 176.516L458.105 176.133L456.109 174.602C453.904 172.961 452.245 171.065 451.133 168.914L449.465 167.41C463.027 161.048 468.013 153.21 464.422 143.895C458.352 139.483 452.263 137.332 446.156 137.441ZM447.469 147.066C453.685 148.671 453.357 150.995 446.484 154.039V153.055L447.469 147.066ZM485.449 137.277C483.827 138.043 482.341 138.581 480.992 138.891C468.651 150.612 465.27 163.974 470.848 178.977C472.853 185.703 477.173 188.674 483.809 187.891C491.064 188.273 495.931 185.439 498.41 179.387C498.046 178.475 497.508 178.074 496.797 178.184C487.974 181.793 482.159 180.171 479.352 173.316C477.31 164.457 478.668 156.764 483.426 150.238C486.215 147.03 489.314 146.492 492.723 148.625C492.212 150.448 492.486 151.934 493.543 153.082L496.387 153.465C505.501 147.066 503.879 141.671 491.52 137.277H490.316H485.449ZM526.082 154.914C522.837 156.938 519.839 157.466 517.086 156.5C512.401 158.596 507.999 158.861 503.879 157.293C498.173 167.848 502.931 171.566 518.152 168.449C520.978 167.374 523.621 167.109 526.082 167.656C530.111 161.969 530.111 157.721 526.082 154.914ZM543.828 137.523C542.388 138.089 541.085 138.444 539.918 138.59L538.852 140.723L538.141 141.078L537.785 141.789C534.868 143.703 532.727 145.964 531.359 148.57C532.909 151.943 535.406 153.602 538.852 153.547C540.747 150.721 542.889 148.707 545.277 147.504C548.559 152.025 550.573 156.773 551.32 161.75C551.448 166.471 550.382 170.509 548.121 173.863C538.806 168.759 532.626 170.664 529.582 179.578C535.178 186.177 541.832 188.191 549.543 185.621C556.707 188.592 563.479 188.711 569.859 185.977L570.926 182.422L569.859 182.066H568.793C567.663 181.501 566.715 181.146 565.949 181L564.855 180.645L563.789 180.289H562.723L562.012 179.934L556.324 178.512C562.777 163.965 560.635 150.658 549.898 138.59C547.656 137.77 545.633 137.414 543.828 137.523ZM594.059 137.496C590.431 138.626 587.569 139.857 585.473 141.188C583.322 139.766 581.143 139.082 578.938 139.137C577.971 140.194 577.014 141.014 576.066 141.598L575.656 142.801V145.672C575.018 149.883 574.745 153.292 574.836 155.898C572.594 162.188 571.646 167.911 571.992 173.07C573.742 172.76 574.827 171.94 575.246 170.609C577.379 177.5 581.061 182.686 586.293 186.168C598.944 191.254 607.53 185.794 612.051 169.789C613.126 150.029 607.129 139.264 594.059 137.496ZM594.059 147.723C598.415 148.926 600.876 152.335 601.441 157.949C602.626 174.191 598.944 180.462 590.395 176.762C585.181 170.491 583.267 163.536 584.652 155.898C585.855 151.049 588.991 148.324 594.059 147.723ZM635.895 137.441C629.879 138.954 625.905 142.309 623.973 147.504C625.285 151.624 628.138 153.483 632.531 153.082C632.203 154.96 632.085 156.582 632.176 157.949V169.105C632.249 172.004 632.121 174.492 631.793 176.57C632.158 178.375 632.158 179.988 631.793 181.41C632.103 182.796 632.23 184.154 632.176 185.484L632.914 185.129C636.286 189.668 639.267 188.547 641.855 181.766V178.785L641.473 176.188L641.855 175.066V172.469L642.211 170.227C642.922 166.836 643.168 163.983 642.949 161.668V160.547C644.116 157.083 644.617 153.857 644.453 150.867C648.956 149.792 651.189 146.93 651.152 142.281C646.413 138.435 641.327 136.822 635.895 137.441ZM673.656 137.469C673.401 137.924 673.137 138.189 672.863 138.262H671.688H670.484C667.385 140.085 665.28 140.276 664.168 138.836L662.664 139.383L660.586 144.605L659.793 145.398L655.828 150.539L655.418 151.742L654.242 154.914L653.832 156.09L651.07 163.227L652.656 167.984C650.724 177.081 653.632 183.561 661.379 187.426C662.928 187.827 664.378 187.954 665.727 187.809C678.706 182.176 686.635 172.797 689.516 159.672C688.786 148.206 683.5 140.805 673.656 137.469ZM671.277 151.332C674.941 152.079 677.193 155.124 678.031 160.465C675.789 167.501 672.089 172.915 666.93 176.707C665.344 173.389 664.815 170.09 665.344 166.809C664.833 164.329 664.697 162.215 664.934 160.465L666.137 158.879L668.105 155.707C669.582 154.23 670.639 152.772 671.277 151.332ZM697.254 139.848C696.889 141.215 696.652 142.4 696.543 143.402V144.441C696.014 146.173 695.786 147.714 695.859 149.062C695.422 150.43 695.185 151.733 695.148 152.973C693.654 153.921 692.587 154.987 691.949 156.172L692.66 159.344C691.694 161.404 691.812 163.299 693.016 165.031L692.66 167.52L692.305 168.23L691.949 170.336L691.594 173.18C691.667 175.367 691.43 177.263 690.883 178.867C691.539 181.146 691.895 183.033 691.949 184.527L692.66 187.727C693.371 187.854 693.964 187.38 694.438 186.305L695.148 185.594L695.504 184.883L696.215 184.527C696.652 183.124 697.236 181.948 697.965 181L698.32 179.934C699.049 178.056 699.76 176.516 700.453 175.312C700.599 172.523 701.191 170.044 702.23 167.875L702.941 169.27L703.652 169.98L704.363 171.047L704.719 172.113C705.958 173.517 706.897 174.82 707.535 176.023L708.602 178.512C709.513 179.496 710.224 180.444 710.734 181.355L711.09 182.395C712.986 183.98 714.408 185.521 715.355 187.016L716.066 187.371L718.172 188.082C718.974 187.152 719.448 186.323 719.594 185.594L720.305 183.461C719.667 182.13 719.311 180.954 719.238 179.934L718.883 178.512C717.898 176.525 717.197 174.866 716.777 173.535C716.358 173.298 716.121 173.061 716.066 172.824L715.355 171.758L715 170.691C714.581 170.454 714.344 170.217 714.289 169.98L713.934 169.27L713.223 168.23C711.199 165.46 709.777 163.09 708.957 161.121C716.814 159.007 721.663 154.513 723.504 147.641C717.616 147.422 712.53 148.844 708.246 151.906L704.363 153.328V151.906L704.719 150.484V149.418L705.074 148.352V147.285L706.141 141.625C704.391 139.219 702.258 137.797 699.742 137.359L697.254 139.848ZM731.953 138.398C731.206 140.112 730.458 141.47 729.711 142.473L729.355 143.211C728.499 144.177 727.879 145.161 727.496 146.164C728.663 148.406 729.155 150.63 728.973 152.836C728.626 156.044 727.642 158.633 726.02 160.602C725.874 163.281 726.247 165.505 727.141 167.273L726.02 173.562L725.637 176.16C725.072 179.861 724.953 182.951 725.281 185.43C727.669 186.268 730.012 186.514 732.309 186.168H733.43C738.06 187.79 742.38 188.41 746.391 188.027C747.32 186.46 747.812 184.974 747.867 183.57C745.789 182.094 744.312 180.362 743.438 178.375L740.457 178.02C738.142 177.29 736.173 176.798 734.551 176.543V175.422L734.906 174.684V173.562L735.645 170.609L736.383 168.012H737.504L738.242 167.656H741.195C743.547 167.31 745.525 167.31 747.129 167.656C756.335 164.32 756.708 161.103 748.25 158.004L746.391 158.77H745.27L741.195 158.004L737.504 157.266V156.172L737.859 155.434L738.242 148.762L739.363 148.379L740.84 148.023H743.793C747.165 147.185 750.009 146.693 752.324 146.547C755.022 142.5 753.418 139.41 747.512 137.277L745.27 138.016H742.316H741.195L740.102 138.398L739.363 138.016L736.766 137.66H735.645C734.478 137.405 733.493 137.277 732.691 137.277L731.953 138.398ZM785.273 135.965C784.945 137.223 784.617 137.833 784.289 137.797L783.305 138.781C782.576 140.312 781.591 141.406 780.352 142.062L779.367 143.703L779.039 144.688C779.495 145.49 779.604 146.583 779.367 147.969L778.711 151.578L778.383 152.562L778.055 154.203L777.727 155.188V156.172L777.07 158.797C776.359 160.839 775.922 162.589 775.758 164.047L775.102 163.062C774.792 161.969 774.464 161.094 774.117 160.438L771.164 152.234C772.167 149.828 772.495 147.531 772.148 145.344C769.615 143.63 767.099 143.193 764.602 144.031C762.87 145.234 761.557 146.438 760.664 147.641L760.008 149.281C759.516 151.086 759.297 153.164 759.352 155.516C758.805 156.719 758.258 157.703 757.711 158.469V159.781L757.383 162.078L757.055 164.375L756.727 166.344L756.398 167.328L756.07 169.625V171.922L755.742 172.906C755.706 174.164 755.596 175.258 755.414 176.188V177.172C754.867 179.341 754.539 181.201 754.43 182.75C756.052 184.336 757.036 186.086 757.383 188C758.859 186.177 760.5 184.865 762.305 184.062C762.724 178.484 764.146 173.672 766.57 169.625L767.227 170.609L767.883 171.594L768.211 172.25L769.523 174.547C770.526 178.083 772.057 181.036 774.117 183.406C775.904 183.753 777.544 183.753 779.039 183.406C786.185 174.51 788.919 164.885 787.242 154.531C788.172 147.914 787.625 142.227 785.602 137.469H785.273H785.602L785.273 135.965Z" fill="#0B0B0B"/>
</svg>
